<svg id="Layer_1" data-name="Layer 1" xmlns="http://www.w3.org/2000/svg" viewBox="0 0 577 496"><defs><style>.cls-1{fill:#f5813e;}.cls-2{fill:#e72b27;}.cls-3{fill:#0d9795;}.cls-4{fill:#06232c;}</style></defs><title>hero pic-01</title><path class="cls-1" d="M290.91,0V198h0c105.33,0,190.72-88.66,190.72-198Z" transform="translate(0 0)"/><path class="cls-1" d="M0,496H135.69c0-77.87-60.76-141-135.69-141Z" transform="translate(0 0)"/><path class="cls-1" d="M577,198V396h0c-105.34,0-190.72-88.66-190.72-198Z" transform="translate(0 0)"/><path class="cls-2" d="M385.31,397c26.6,0,48.16-22.39,48.16-50s-21.56-50-48.16-50-48.16,22.39-48.16,50S358.71,397,385.31,397Z" transform="translate(0 0)"/><path class="cls-2" d="M482.41,197.82c26.57,0,48.11-22.38,48.11-50s-21.54-50-48.11-50-48.12,22.38-48.12,50S455.83,197.82,482.41,197.82Z" transform="translate(0 0)"/><path class="cls-2" d="M52,198c26.57,0,48.11-22.37,48.11-50S78.54,98,52,98,3.85,120.38,3.85,148,25.39,198,52,198Z" transform="translate(0 0)"/><path class="cls-3" d="M162.47,496c16.22,0,29.38-13.66,29.38-30.5S178.69,435,162.47,435s-29.37,13.65-29.37,30.5S146.25,496,162.47,496Z" transform="translate(0 0)"/><path class="cls-3" d="M235.52,198c26.33,0,47.68-22.16,47.68-49.5S261.85,99,235.52,99s-47.68,22.16-47.68,49.5S209.19,198,235.52,198Z" transform="translate(0 0)"/><path class="cls-2" d="M290.91,495V198c-78.73,0-142.57,66.49-142.57,148.5S212.18,495,290.91,495Z" transform="translate(0 0)"/><path class="cls-1" d="M100.18,98V298c52.66,0,95.36-44.77,95.36-100S152.84,98,100.18,98Z" transform="translate(0 0)"/><path class="cls-4" d="M290.91,99H100.18c0-54.67,42.69-99,95.36-99S290.91,44.33,290.91,99Z" transform="translate(0 0)"/><path class="cls-4" d="M290.91,396H481.64c0,54.67-42.7,99-95.36,99S290.91,450.67,290.91,396Z" transform="translate(0 0)"/><path class="cls-3" d="M386.27,198H290.91v99h95.36Z" transform="translate(0 0)"/></svg>